<svg xmlns="http://www.w3.org/2000/svg" width="19" height="14" viewBox="0 0 19 14" fill="none">
  <path fill-rule="evenodd" clip-rule="evenodd" d="M5.33936 5.54167C5.33891 4.70951 5.6171 3.90033 6.13101 3.23889C6.64493 2.57745 7.36603 2.1005 8.18312 1.88158C9.00021 1.66266 9.86791 1.71393 10.6524 2.02749C11.4369 2.34105 12.0946 2.89948 12.5242 3.61667C11.4529 3.84425 10.4787 4.39003 9.73384 5.18C9.581 5.35127 9.50216 5.57434 9.51407 5.80182C9.52599 6.0293 9.62771 6.24325 9.79763 6.3982C9.96754 6.55316 10.1923 6.6369 10.424 6.63163C10.6558 6.62636 10.8763 6.5325 11.0388 6.37C11.3859 6.00233 11.8094 5.71226 12.2806 5.51943C12.7517 5.32659 13.2596 5.23551 13.7697 5.25233C14.7017 5.28567 15.5832 5.67678 16.2249 6.34166C16.8666 7.00655 17.2173 7.89218 17.2018 8.80836C17.1862 9.72454 16.8056 10.5982 16.1417 11.2417C15.4778 11.8852 14.5836 12.2472 13.651 12.25H4.44883C3.74027 12.2503 3.06062 11.974 2.55937 11.482C2.05813 10.9899 1.77636 10.3224 1.77604 9.62616C1.77573 8.92997 2.0569 8.26217 2.55769 7.76967C3.05849 7.27717 3.7379 7.00031 4.44645 7H4.48207C4.60862 7.00046 4.73381 6.97442 4.84931 6.9236C4.96481 6.87279 5.06796 6.79837 5.15189 6.70531C5.23582 6.61225 5.2986 6.50268 5.33604 6.3839C5.37348 6.26513 5.38473 6.13988 5.36904 6.0165C5.3482 5.85907 5.33828 5.70042 5.33936 5.54167ZM9.19833 9.18732e-08C7.73863 -7.89428e-05 6.33575 0.555907 5.28461 1.55107C4.23346 2.54624 3.61594 3.90307 3.56186 5.33633C2.48102 5.55342 1.52064 6.15692 0.866739 7.02993C0.21284 7.90294 -0.0880411 8.98333 0.0223743 10.0618C0.13279 11.1403 0.646644 12.1402 1.46441 12.8678C2.28217 13.5953 3.34564 13.9988 4.44883 14H13.651C14.9983 14.0014 16.2964 13.5027 17.2854 12.6037C18.2744 11.7047 18.8812 10.4718 18.9843 9.1519C19.0875 7.83198 18.6793 6.5225 17.8416 5.4857C17.0039 4.44891 15.7984 3.76133 14.4667 3.56067C14.0586 2.51295 13.3364 1.61163 12.3957 0.975852C11.455 0.340076 10.3401 -0.000204134 9.19833 9.18732e-08Z" fill="#ABB7C0"/>
</svg>