<svg xmlns="http://www.w3.org/2000/svg" width="17" height="17" viewBox="0 0 17 17" fill="none">
  <path d="M16.5 5.899C16.4908 5.8209 16.4729 5.74397 16.4467 5.6695V5.593C16.4049 5.50507 16.3478 5.42458 16.2778 5.355L10.9444 0.255C10.8717 0.188038 10.7875 0.133423 10.6956 0.0934999C10.669 0.0896531 10.6421 0.0896531 10.6156 0.0934999C10.5251 0.044389 10.4254 0.0126293 10.3222 0H6.72222C6.01498 0 5.3367 0.26866 4.8366 0.746878C4.33651 1.2251 4.05556 1.8737 4.05556 2.55V3.4H3.16667C2.45942 3.4 1.78115 3.66866 1.28105 4.14688C0.780952 4.6251 0.5 5.2737 0.5 5.95V14.45C0.5 15.1263 0.780952 15.7749 1.28105 16.2531C1.78115 16.7313 2.45942 17 3.16667 17H10.2778C10.985 17 11.6633 16.7313 12.1634 16.2531C12.6635 15.7749 12.9444 15.1263 12.9444 14.45V13.6H13.8333C14.5406 13.6 15.2189 13.3313 15.719 12.8531C16.219 12.3749 16.5 11.7263 16.5 11.05V5.899ZM11.1667 2.8985L13.4689 5.1H12.0556C11.8198 5.1 11.5937 5.01045 11.427 4.85104C11.2603 4.69163 11.1667 4.47543 11.1667 4.25V2.8985ZM11.1667 14.45C11.1667 14.6754 11.073 14.8916 10.9063 15.051C10.7396 15.2104 10.5135 15.3 10.2778 15.3H3.16667C2.93092 15.3 2.70483 15.2104 2.53813 15.051C2.37143 14.8916 2.27778 14.6754 2.27778 14.45V5.95C2.27778 5.72457 2.37143 5.50837 2.53813 5.34896C2.70483 5.18955 2.93092 5.1 3.16667 5.1H4.05556V11.05C4.05556 11.7263 4.33651 12.3749 4.8366 12.8531C5.3367 13.3313 6.01498 13.6 6.72222 13.6H11.1667V14.45ZM14.7222 11.05C14.7222 11.2754 14.6286 11.4916 14.4619 11.651C14.2952 11.8104 14.0691 11.9 13.8333 11.9H6.72222C6.48647 11.9 6.26038 11.8104 6.09368 11.651C5.92698 11.4916 5.83333 11.2754 5.83333 11.05V2.55C5.83333 2.32457 5.92698 2.10837 6.09368 1.94896C6.26038 1.78955 6.48647 1.7 6.72222 1.7H9.38889V4.25C9.38889 4.9263 9.66984 5.5749 10.1699 6.05312C10.67 6.53134 11.3483 6.8 12.0556 6.8H14.7222V11.05Z" fill="#FCCA40"/>
</svg>