<svg width="20" height="20" viewBox="0 0 20 20" fill="none" xmlns="http://www.w3.org/2000/svg">
<path d="M2.92963 17.0719C3.8574 18.0015 4.95962 18.7387 6.17302 19.2412C7.38642 19.7436 8.6871 20.0015 10.0004 20C15.5231 20 20 15.5229 20 10C20 7.23857 18.8801 4.73794 17.0704 2.92809C16.1426 1.99852 15.0404 1.26133 13.827 0.758848C12.6136 0.256367 11.3129 -0.00151442 9.99958 6.69009e-06C4.47694 6.69009e-06 0 4.47713 0 10C0 12.7614 1.11986 15.2621 2.92963 17.0719ZM4.21447 4.21715C4.97366 3.4567 5.87547 2.85356 6.8682 2.44233C7.86093 2.03109 8.92506 1.81984 9.99958 1.82069C14.5182 1.82069 18.1811 5.48371 18.1811 10.0025C18.1819 11.0771 17.9707 12.1412 17.5594 13.134C17.1482 14.1268 16.5451 15.0286 15.7847 15.7878C15.0256 16.5482 14.1239 17.1513 13.1314 17.5625C12.1388 17.9737 11.0748 18.185 10.0004 18.1843C5.48265 18.1843 1.81977 14.5213 1.81977 10.0033C1.81904 8.9289 2.03033 7.86488 2.44155 6.87226C2.85276 5.87965 3.45581 4.97794 4.21614 4.21882L4.21447 4.21715Z" fill="white"/>
<path d="M8.71474 9.99917L5.50265 13.2114C5.3442 13.3841 5.25858 13.6113 5.26366 13.8457C5.26874 14.08 5.36413 14.3033 5.52991 14.469C5.6957 14.6347 5.91906 14.7299 6.15339 14.7349C6.38771 14.7398 6.61488 14.654 6.78748 14.4955L6.78665 14.4963L9.99875 11.2841L13.2108 14.4963C13.3836 14.6547 13.6108 14.7404 13.8451 14.7353C14.0794 14.7302 14.3027 14.6348 14.4684 14.469C14.6341 14.3032 14.7293 14.0799 14.7343 13.8455C14.7392 13.6112 14.6534 13.384 14.4949 13.2114L14.4957 13.2122L11.2836 10L14.4957 6.78777C14.5861 6.70485 14.6587 6.60451 14.7093 6.49277C14.7599 6.38103 14.7873 6.26022 14.79 6.13759C14.7926 6.01497 14.7705 5.89308 14.7248 5.77926C14.6791 5.66543 14.6108 5.56203 14.5241 5.47527C14.4374 5.38852 14.3341 5.3202 14.2203 5.27444C14.1065 5.22868 13.9846 5.20642 13.862 5.209C13.7394 5.21158 13.6186 5.23894 13.5068 5.28945C13.395 5.33995 13.2947 5.41255 13.2117 5.50288L9.99875 8.71594L6.78665 5.50371C6.70374 5.41333 6.6034 5.34067 6.49166 5.29009C6.37993 5.23951 6.25912 5.21207 6.1365 5.20941C6.01389 5.20675 5.892 5.22893 5.77818 5.27462C5.66436 5.32031 5.56096 5.38856 5.47421 5.47525C5.38746 5.56195 5.31915 5.66531 5.27339 5.77911C5.22763 5.8929 5.20537 6.01478 5.20794 6.1374C5.21052 6.26003 5.23789 6.38086 5.28839 6.49263C5.33889 6.6044 5.41149 6.7048 5.50181 6.78777L8.71474 9.99917Z" fill="white"/>
</svg>
