<svg xmlns="http://www.w3.org/2000/svg" width="11" height="8" viewBox="0 0 11 8" fill="none">
  <path d="M9.25765 1.43051e-06H2.24235C1.96539 -0.000430107 1.69398 0.083601 1.45954 0.24237C1.2251 0.401138 1.0372 0.628151 0.917607 0.897133C0.777607 1.21628 0.723685 1.57136 0.761985 1.9219C0.800285 2.27244 0.929267 2.60435 1.13423 2.87979L4.64188 7.45517C4.77954 7.62619 4.94972 7.76334 5.14091 7.85735C5.3321 7.95135 5.53982 8 5.75 8C5.96018 8 6.1679 7.95135 6.35909 7.85735C6.55028 7.76334 6.72046 7.62619 6.85812 7.45517L10.3658 2.87979C10.5707 2.60435 10.6997 2.27244 10.738 1.9219C10.7763 1.57136 10.7224 1.21628 10.5824 0.897133C10.4628 0.628151 10.2749 0.401138 10.0405 0.24237C9.80602 0.083601 9.53461 -0.000430107 9.25765 1.43051e-06Z" fill="#F52222"/>
</svg>