<svg width="16" height="14" viewBox="0 0 16 14" fill="none" xmlns="http://www.w3.org/2000/svg">
<path d="M10.276 7.69846L11.1387 8.60408C11.2637 8.73549 11.3338 8.91366 11.3337 9.09937C11.3336 9.28509 11.2632 9.46315 11.138 9.59438C11.076 9.65936 11.0024 9.71088 10.9215 9.74601C10.8405 9.78115 10.7538 9.79919 10.6662 9.79913C10.4893 9.799 10.3197 9.7251 10.1947 9.59368L8.19467 7.4941C8.06969 7.36286 7.99948 7.18488 7.99948 6.9993C7.99948 6.81372 8.06969 6.63574 8.19467 6.5045L10.1947 4.40492C10.3197 4.2735 10.4893 4.1996 10.6662 4.19947C10.8431 4.19934 11.0128 4.27299 11.138 4.40422C11.2632 4.53545 11.3336 4.71351 11.3337 4.89923C11.3338 5.08494 11.2637 5.26311 11.1387 5.39452L10.276 6.29874H12.664C12.8408 6.29874 13.0104 6.37248 13.1354 6.50372C13.2604 6.63497 13.3307 6.81299 13.3307 6.9986C13.3307 7.18421 13.2604 7.36223 13.1354 7.49348C13.0104 7.62473 12.8408 7.69846 12.664 7.69846H10.276ZM2.66667 0C1.95942 0 1.28115 0.29494 0.781048 0.819937C0.280951 1.34493 0 2.05698 0 2.79944V11.2006C0 11.943 0.280951 12.6551 0.781048 13.1801C1.28115 13.7051 1.95942 14 2.66667 14H13.3333C14.0406 14 14.7189 13.7051 15.219 13.1801C15.719 12.6551 16 11.943 16 11.2006V2.79944C16 2.05698 15.719 1.34493 15.219 0.819937C14.7189 0.29494 14.0406 0 13.3333 0H2.66667ZM1.33333 2.79944C1.33333 2.42821 1.47381 2.07219 1.72386 1.80969C1.97391 1.54719 2.31304 1.39972 2.66667 1.39972H5.336V12.6003H2.66667C2.31304 12.6003 1.97391 12.4528 1.72386 12.1903C1.47381 11.9278 1.33333 11.5718 1.33333 11.2006V2.79944ZM6.66933 12.6003V1.39972H13.3333C13.687 1.39972 14.0261 1.54719 14.2761 1.80969C14.5262 2.07219 14.6667 2.42821 14.6667 2.79944V11.2006C14.6667 11.5718 14.5262 11.9278 14.2761 12.1903C14.0261 12.4528 13.687 12.6003 13.3333 12.6003H6.66933Z" fill="#FCCA40"/>
</svg>
