<svg width="14" height="12" viewBox="0 0 14 12" fill="none" xmlns="http://www.w3.org/2000/svg">
<path d="M12.3323 3.30823H8.2642C7.58222 3.30823 6.95682 3.67581 6.71261 4.22208C6.59945 4.47479 6.31057 4.64582 5.99192 4.64582H1.66475C0.747501 4.64582 0 5.28654 0 6.07275V10.5731C0 11.3593 0.747501 12 1.66475 12H12.3352C13.2525 12 14 11.3593 14 10.5731V4.73516C13.997 3.94895 13.2495 3.30823 12.3323 3.30823Z" fill="#ABB7C0"/>
<path d="M12.3323 1.33759H8.00511C7.68943 1.33759 7.40055 1.16656 7.28739 0.913848C7.04318 0.367581 6.41778 0 5.7358 0H1.66475C0.747501 0 0 0.640715 0 1.42693V4.76579C0.244203 4.53861 0.547969 4.35992 0.893427 4.25271V1.42693C0.893427 1.0619 1.23889 0.765795 1.66475 0.765795H5.7358C6.05148 0.765795 6.34035 0.936822 6.45352 1.18953C6.69772 1.7358 7.32312 2.10338 8.00511 2.10338H12.3323C12.7581 2.10338 13.1036 2.39949 13.1036 2.76452V2.91768C13.4491 3.02489 13.7528 3.20357 13.997 3.43076V2.76452C13.997 1.97575 13.2495 1.33759 12.3323 1.33759Z" fill="#ABB7C0"/>
</svg>
