<svg width="16" height="16" viewBox="0 0 16 16" fill="none" xmlns="http://www.w3.org/2000/svg">
<path d="M2.99999 5.50001C4.16498 5.50001 5.14373 4.70334 5.42123 3.62501H14.875C15.2202 3.62501 15.5 3.3452 15.5 3.00002C15.5 2.65481 15.2202 2.375 14.875 2.375H5.42126C5.14376 1.29667 4.16501 0.5 3.00002 0.5C1.6192 0.5 0.5 1.6192 0.5 2.99999C0.5 4.38078 1.6192 5.50001 2.99999 5.50001ZM2.99999 1.75001C3.69043 1.75001 4.25 2.30955 4.25 3.00002C4.25 3.69049 3.69046 4.25 2.99999 4.25C2.30952 4.25 1.74998 3.69046 1.74998 2.99999C1.74998 2.30952 2.30955 1.75001 2.99999 1.75001Z" fill="#4A5863"/>
<path d="M13 10.5C11.835 10.5 10.8563 11.2967 10.5788 12.375H1.12499C0.779814 12.375 0.5 12.6548 0.5 13C0.5 13.3452 0.779814 13.625 1.12499 13.625H10.5787C10.8562 14.7033 11.835 15.5 13 15.5C14.3808 15.5 15.5 14.3808 15.5 13C15.5 11.6192 14.3808 10.5 13 10.5ZM13 14.25C12.3096 14.25 11.75 13.6904 11.75 13C11.75 12.3095 12.3095 11.75 13 11.75C13.6905 11.75 14.25 12.3095 14.25 13C14.25 13.6905 13.6904 14.25 13 14.25Z" fill="#4A5863"/>
<path d="M14.875 7.37501H10.4212C10.1437 6.29668 9.16499 5.50001 8 5.50001C6.83501 5.50001 5.85626 6.29668 5.57876 7.37501H1.12499C0.779814 7.37501 0.5 7.65482 0.5 8C0.5 8.34518 0.779814 8.62499 1.12499 8.62499H5.57873C5.85623 9.70332 6.83498 10.5 7.99997 10.5C9.16496 10.5 10.1437 9.70332 10.4212 8.62499H14.875C15.2201 8.62499 15.4999 8.34518 15.4999 8C15.4999 7.65482 15.2202 7.37501 14.875 7.37501ZM8 9.25001C7.30956 9.25001 6.74999 8.69047 6.74999 8C6.74999 7.30953 7.30953 6.74999 8 6.74999C8.69047 6.74999 9.25001 7.30953 9.25001 8C9.25001 8.69047 8.69044 9.25001 8 9.25001Z" fill="#4A5863"/>
</svg>