<svg width="14" height="12" viewBox="0 0 14 12" fill="none" xmlns="http://www.w3.org/2000/svg">
<path d="M12.4969 5H11V3.5C11 2.67188 10.3281 2 9.5 2H7.5L5.5 0H1.5C0.671875 0 0 0.671875 0 1.5V10.5C0 11.3281 0.671875 12 1.5 12H10C10.5156 12 10.9969 11.7344 11.2719 11.2937L13.7687 7.29375C14.3937 6.29688 13.675 5 12.4969 5ZM1.5 1.6875C1.5 1.58438 1.58438 1.5 1.6875 1.5H4.87813L6.87813 3.5H9.3125C9.41562 3.5 9.5 3.58437 9.5 3.6875V5H4.75C4.225 5 3.7375 5.275 3.46563 5.725L1.5 8.98125V1.6875ZM10 10.5H2.25L4.6625 6.5H12.5L10 10.5Z" fill="#FCCA40"/>
</svg>
