<svg width="14" height="12" viewBox="0 0 14 12" fill="none" xmlns="http://www.w3.org/2000/svg">
<path d="M13.8125 4.47429C13.7197 4.32724 13.5976 4.20754 13.4563 4.12508C13.3151 4.04261 13.1586 3.99973 13 4H12V2.85714C12 2.55404 11.8946 2.26335 11.7071 2.04902C11.5196 1.83469 11.2652 1.71429 11 1.71429H6.66687L4.93375 0.228571C4.76036 0.0808446 4.55002 0.0007143 4.33375 0H1C0.734784 0 0.48043 0.120408 0.292893 0.334735C0.105357 0.549062 0 0.839753 0 1.14286V11.4286C0 11.5801 0.0526784 11.7255 0.146447 11.8326C0.240215 11.9398 0.367392 12 0.5 12H11.6938C11.7987 12 11.901 11.9623 11.9861 11.8922C12.0713 11.822 12.1349 11.7231 12.1681 11.6093L13.9487 5.50429C13.9988 5.3325 14.0126 5.14961 13.9889 4.97058C13.9652 4.79155 13.9048 4.62148 13.8125 4.47429ZM4.33375 1.14286L6.2 2.74286C6.28655 2.81704 6.39181 2.85714 6.5 2.85714H11V4H2.86062C2.65073 3.99998 2.44616 4.07544 2.27588 4.21569C2.1056 4.35594 1.97825 4.55386 1.91188 4.78143L1 7.90714V1.14286H4.33375Z" fill="#ABB7C0"/>
</svg>
