<svg width="19" height="19" viewBox="0 0 19 19" fill="none" xmlns="http://www.w3.org/2000/svg">
          <path
            d="M9.14638 2.69171L6.95461 4.88426L6.38853 4.31857L9.5 1.20711L12.6115 4.31858L12.0454 4.88426L9.85362 2.69171L9.5 2.33797L9.14638 2.69171ZM2.69171 9.85362L4.88426 12.0454L4.31858 12.6115L1.20711 9.5L4.31857 6.38853L4.88426 6.95461L2.69171 9.14638L2.33797 9.5L2.69171 9.85362ZM16.3083 9.14638L14.1157 6.95461L14.6814 6.38853L17.7929 9.5L14.6814 12.6115L14.1157 12.0454L16.3083 9.85362L16.662 9.5L16.3083 9.14638ZM9.85362 16.3083L12.0454 14.1157L12.6115 14.6814L9.5 17.7929L6.38853 14.6814L6.95461 14.1157L9.14638 16.3083L9.5 16.662L9.85362 16.3083ZM9.5 10.8C9.15522 10.8 8.82456 10.663 8.58076 10.4192C8.33696 10.1754 8.2 9.84478 8.2 9.5C8.2 9.15522 8.33696 8.82456 8.58076 8.58076C8.82456 8.33696 9.15522 8.2 9.5 8.2C9.84478 8.2 10.1754 8.33696 10.4192 8.58076C10.663 8.82456 10.8 9.15522 10.8 9.5C10.8 9.84478 10.663 10.1754 10.4192 10.4192C10.1754 10.663 9.84478 10.8 9.5 10.8Z"
            fill="#191E22" stroke="#ABB7C0" />
        </svg>