<svg xmlns="http://www.w3.org/2000/svg" width="11" height="8" viewBox="0 0 11 8" fill="none">
  <path d="M9.00765 8H1.99235C1.71539 8.00043 1.44398 7.9164 1.20954 7.75763C0.975096 7.59886 0.787202 7.37185 0.667607 7.10287C0.527607 6.78372 0.473685 6.42864 0.511985 6.0781C0.550285 5.72756 0.679267 5.39565 0.884232 5.12021L4.39188 0.544835C4.52954 0.373815 4.69972 0.236656 4.89091 0.142653C5.0821 0.04865 5.28982 0 5.5 0C5.71018 0 5.9179 0.04865 6.10909 0.142653C6.30028 0.236656 6.47046 0.373815 6.60812 0.544835L10.1158 5.12021C10.3207 5.39565 10.4497 5.72756 10.488 6.0781C10.5263 6.42864 10.4724 6.78372 10.3324 7.10287C10.2128 7.37185 10.0249 7.59886 9.79046 7.75763C9.55602 7.9164 9.28461 8.00043 9.00765 8Z" fill="#22F57A"/>
</svg>