<svg width="14" height="14" viewBox="0 0 14 14" fill="none" xmlns="http://www.w3.org/2000/svg">
<path d="M2.33328 3.88897L7 6.22223L11.6667 3.88897L7 1.5557L2.33328 3.88897ZM7.38034 0.090414L13.5972 3.26054C13.9752 3.45343 14.1113 3.89053 13.9013 4.23818C13.8281 4.35761 13.723 4.45429 13.598 4.5174L7.38034 7.68752C7.26231 7.74677 7.13207 7.77762 7 7.77762C6.86793 7.77762 6.73769 7.74677 6.61966 7.68752L0.402807 4.5174C0.0248028 4.32451 -0.11131 3.88741 0.0986928 3.53976C0.171919 3.42033 0.276954 3.32365 0.40203 3.26054L6.61966 0.090414C6.85611 -0.030138 7.14389 -0.030138 7.38034 0.090414ZM7.38034 10.797C7.26267 10.8574 7.13229 10.889 7 10.889C6.86771 10.889 6.73733 10.8574 6.61966 10.797L0.402807 7.57164C0.0248028 7.37565 -0.11131 6.93077 0.0986928 6.57767C0.172193 6.45729 0.277046 6.35916 0.40203 6.29379C0.492751 6.24674 0.59345 6.22219 0.695645 6.22219C0.797839 6.22219 0.898538 6.24674 0.989259 6.29379L6.62044 9.21426C6.85611 9.33714 7.14389 9.33714 7.38034 9.21426L13.0107 6.29379C13.1014 6.24687 13.2019 6.22239 13.304 6.22239C13.406 6.22239 13.5066 6.24687 13.5972 6.29379C13.9752 6.48978 14.1113 6.93466 13.9013 7.28776C13.8278 7.40814 13.723 7.50627 13.598 7.57164L7.38034 10.797ZM7.38034 13.908C7.26267 13.9685 7.13229 14 7 14C6.86771 14 6.73733 13.9685 6.61966 13.908L0.402807 10.6827C0.0248028 10.4867 -0.11131 10.0418 0.0986928 9.68869C0.172193 9.56831 0.277046 9.47018 0.40203 9.40481C0.492751 9.35776 0.59345 9.33321 0.695645 9.33321C0.797839 9.33321 0.898538 9.35776 0.989259 9.40481L6.62044 12.3253C6.85611 12.4482 7.14389 12.4482 7.38034 12.3253L13.0107 9.40481C13.1014 9.35789 13.2019 9.33341 13.304 9.33341C13.406 9.33341 13.5066 9.35789 13.5972 9.40481C13.9752 9.6008 14.1113 10.0457 13.9013 10.3988C13.8278 10.5192 13.723 10.6173 13.598 10.6827L7.38034 13.908Z" fill="#ABB7C0"/>
</svg>
