<svg width="12" height="12" viewBox="0 0 12 12" fill="none" xmlns="http://www.w3.org/2000/svg">
<path d="M9.57226 7.49505C9.55951 7.50779 9.54826 7.5225 9.53566 7.53524L6 10.8759L2.48534 7.55563C2.46568 7.53598 2.44919 7.51468 2.42968 7.49414C0.958037 7.95015 0 8.67779 0 9.49995C0 10.8809 2.68649 12 6 12C9.31456 12 12 10.8809 12 9.49995C12 8.67779 11.043 7.95015 9.57226 7.49505Z" fill="#FCCA40"/>
<path d="M9.99946 3.9999C9.99946 1.79294 8.20934 0 6 0C3.79201 0.000908203 1.99995 1.79086 1.99995 4.00096C1.99995 5.10436 2.4477 6.10441 3.17191 6.82816L6 9.49995L8.82855 6.82711C9.55216 6.10456 10 5.10451 10 3.9999H9.99946ZM6 6C4.8951 6 4.00005 5.10539 4.00005 3.9999C4.00005 2.89544 4.8951 1.99995 6 1.99995C7.10446 1.99995 7.99995 2.89544 7.99995 3.9999C7.99995 5.10539 7.10446 6 6 6Z" fill="#FCCA40"/>
</svg>
