<svg width="27" height="26" viewBox="0 0 27 26" fill="none" xmlns="http://www.w3.org/2000/svg">
<path d="M21.4317 20.8004L25.6313 25M10.0327 12.4011H13.0325M13.0325 12.4011H16.0322M13.0325 12.4011V15.4009M13.0325 12.4011V9.40141M7.33297 2.52602C9.72806 1.14389 12.5439 0.679527 15.256 1.21944C17.968 1.75935 20.3914 3.26672 22.0745 5.46074C23.7577 7.65477 24.5859 10.3858 24.4049 13.1452C24.2239 15.9045 23.046 18.504 21.0907 20.4594C19.1353 22.4147 16.5358 23.5926 13.7765 23.7736C11.0171 23.9546 8.28608 23.1264 6.09206 21.4432C3.89804 19.7601 2.39067 17.3367 1.85076 14.6247C1.31084 11.9126 1.77521 9.09675 3.15734 6.70165" stroke="#FCCA40" stroke-width="2" stroke-linecap="round"/>
</svg>
