<svg width="16" height="16" viewBox="0 0 16 16" fill="none" xmlns="http://www.w3.org/2000/svg">
<path d="M8 2.4V1M8 15V13.6M13.6 8H15M1 8H2.4M8 2.96C7.00318 2.96 6.02875 3.25559 5.19993 3.80939C4.3711 4.3632 3.72511 5.15034 3.34365 6.07128C2.96218 6.99222 2.86237 8.00559 3.05684 8.98326C3.25131 9.96092 3.73133 10.859 4.43618 11.5638C5.14104 12.2687 6.03908 12.7487 7.01674 12.9432C7.99441 13.1376 9.00778 13.0378 9.92872 12.6564C10.8497 12.2749 11.6368 11.6289 12.1906 10.8001C12.7444 9.97125 13.04 8.99682 13.04 8C13.04 6.66331 12.509 5.38137 11.5638 4.43618C10.6186 3.491 9.33669 2.96 8 2.96Z" stroke="#4A5863" stroke-width="2" stroke-linecap="round" stroke-linejoin="round"/>
</svg>
