<svg width="12" height="14" viewBox="0 0 12 14" fill="none" xmlns="http://www.w3.org/2000/svg">
<path fill-rule="evenodd" clip-rule="evenodd" d="M6.42549 13.8331C7.79492 12.5208 12 8.28457 12 5.66476C12 2.53579 9.31355 0 5.99868 0C2.68645 0 0 2.53579 0 5.66476C0 8.28457 4.20247 12.5208 5.57189 13.8331C5.80756 14.0556 6.18982 14.0556 6.42549 13.8331ZM5.99934 8.3172C7.55147 8.3172 8.80933 7.12987 8.80933 5.66479C8.80933 4.19971 7.55147 3.01239 5.99934 3.01239C4.44847 3.01239 3.1906 4.19971 3.1906 5.66479C3.1906 7.12987 4.44847 8.3172 5.99934 8.3172Z" fill="#ABB7C0"/>
</svg>
