<svg xmlns="http://www.w3.org/2000/svg" width="18" height="18" viewBox="0 0 18 18" fill="none">
  <path d="M1 3.28572C1 2.67951 1.24082 2.09813 1.66947 1.66947C2.09812 1.24082 2.6795 1 3.28571 1M17 3.28572C17 2.67951 16.7592 2.09813 16.3305 1.66947C15.9019 1.24082 15.3205 1 14.7143 1M17 14.7143C17 15.3205 16.7592 15.9019 16.3305 16.3305C15.9019 16.7592 15.3205 17 14.7143 17M1 14.7143C1 15.3205 1.24082 15.9019 1.66947 16.3305C2.09812 16.7592 2.6795 17 3.28571 17M17 10.1429V12.4286M17 5.57143V7.85714M1 10.1429V12.4286M1 5.57143V7.85714M7.85714 1H5.57143M12.4286 1H10.1429M7.85714 17H5.57143M12.4286 17H10.1429M6.71428 9H11.2857M9 6.71428V11.2857" stroke="#FCCA40" stroke-width="1.5" stroke-linecap="round" stroke-linejoin="round"/>
</svg>