<svg xmlns="http://www.w3.org/2000/svg" width="19" height="19" viewBox="0 0 19 19" fill="none">
  <path d="M9.5 3.1V1.5M9.5 17.5V15.9M15.9 9.5H17.5M1.5 9.5H3.1M9.5 3.74C8.36078 3.74 7.24714 4.07782 6.29992 4.71073C5.35269 5.34365 4.61441 6.24324 4.17845 7.29574C3.74249 8.34825 3.62843 9.50639 3.85068 10.6237C4.07293 11.7411 4.62151 12.7674 5.42706 13.5729C6.23262 14.3785 7.25895 14.9271 8.37628 15.1493C9.49361 15.3716 10.6518 15.2575 11.7043 14.8215C12.7568 14.3856 13.6563 13.6473 14.2893 12.7001C14.9222 11.7529 15.26 10.6392 15.26 9.5C15.26 7.97235 14.6531 6.50727 13.5729 5.42706C12.4927 4.34686 11.0276 3.74 9.5 3.74Z" stroke="#FCCA40" stroke-width="2" stroke-linecap="round" stroke-linejoin="round"/>
</svg>