<svg xmlns="http://www.w3.org/2000/svg" width="20" height="14" viewBox="0 0 20 14" fill="none">
  <path fill-rule="evenodd" clip-rule="evenodd" d="M6.85487 0C5.53373 0 4.45137 1.01388 4.45137 2.24949C4.45137 2.83234 4.69858 3.3611 5.09209 3.7623L3.11862 7.48709C3.04727 7.48097 2.97823 7.46696 2.90519 7.46696C1.58406 7.46696 0.5 8.47925 0.5 9.71486C0.5 10.9505 1.58406 11.9643 2.90519 11.9643C3.74119 11.9643 4.48008 11.5568 4.91138 10.9455L14.7639 12.2755C15.02 13.2594 15.9679 14 17.0948 14C18.4159 14 19.5 12.9879 19.5 11.7521C19.5 10.5552 18.4803 9.5727 17.2158 9.51209L15.921 5.73438C16.475 5.32113 16.8396 4.69266 16.8396 3.98364C16.8396 2.74803 15.7557 1.73376 14.4346 1.73376C13.5975 1.73376 12.858 2.14148 12.4265 2.75415L9.22691 1.93693C9.06119 0.848616 8.06158 0 6.85487 0ZM6.85487 1.13945C7.51776 1.13945 8.04342 1.62951 8.04342 2.24949C8.04342 2.86946 7.51776 3.35972 6.85487 3.35972C6.19198 3.35972 5.66969 2.86926 5.66969 2.24949C5.66969 1.62971 6.19198 1.13945 6.85487 1.13945ZM14.4346 2.87341C15.0975 2.87341 15.62 3.36366 15.62 3.98364C15.62 4.60362 15.0975 5.09328 14.4346 5.09328C13.7717 5.09328 13.2463 4.60362 13.2463 3.98364C13.2463 3.36366 13.7719 2.87341 14.4346 2.87341ZM8.91236 3.39348L12.0509 4.19708C12.1681 5.33041 13.1867 6.2276 14.4264 6.23155L15.6926 9.93462C15.3654 10.1569 15.1076 10.4555 14.9313 10.7984L5.28547 9.49669C5.22699 8.95174 4.96796 8.4605 4.56558 8.09878L6.48901 4.46481C6.60934 4.48258 6.72926 4.49917 6.85487 4.49917C7.72866 4.49917 8.49077 4.05176 8.91236 3.39348ZM2.90519 8.60463C3.56808 8.60463 4.09374 9.09488 4.09374 9.71486C4.09484 9.86112 4.06484 10.0061 4.0055 10.1414C3.94615 10.2768 3.85864 10.3997 3.74805 10.5031C3.63746 10.6065 3.506 10.6883 3.36131 10.7438C3.21661 10.7993 3.06157 10.8273 2.90519 10.8263C2.2423 10.8263 1.71832 10.3346 1.71832 9.71486C1.71711 9.56876 1.74699 9.4239 1.8062 9.28871C1.86542 9.15351 1.95279 9.03068 2.06324 8.92736C2.17369 8.82404 2.30501 8.7423 2.44955 8.6869C2.5941 8.63149 2.74898 8.60353 2.90519 8.60463ZM17.0948 10.6409C17.7577 10.6409 18.2817 11.1323 18.2817 11.7521C18.2817 12.3719 17.7577 12.8594 17.0948 12.8594C16.4319 12.8594 15.9063 12.3721 15.9063 11.7521C15.9052 11.6059 15.9352 11.4609 15.9946 11.3256C16.0539 11.1903 16.1414 11.0674 16.252 10.964C16.3626 10.8606 16.4941 10.7788 16.6387 10.7233C16.7834 10.6678 16.9385 10.6398 17.0948 10.6409Z" fill="#453303"/>
</svg>