<svg width="12" height="12" viewBox="0 0 12 12" fill="none" xmlns="http://www.w3.org/2000/svg">
<path d="M10 0H2.52349C1.12999 0 0 1.12999 0 2.5235V11.5C0 11.6965 0.114492 11.874 0.293508 11.955C0.471 12.036 0.681 12.0055 0.829008 11.8765L4.5 8.66451L8.17099 11.8765C8.2635 11.9575 8.38148 12 8.49998 12C8.56999 12 8.64049 11.9855 8.70649 11.955C8.88548 11.874 9 11.6965 9 11.5V6.00001H11.5C11.776 6.00001 12 5.77602 12 5.50002V2C12 0.895502 11.1045 0 10 0ZM11 5H9V2C9 1.44849 9.4485 0.999986 10 0.999986C10.5515 0.999986 11 1.44849 11 2V5H11Z" fill="#ABB7C0"/>
</svg>
