<svg xmlns="http://www.w3.org/2000/svg" width="16" height="16" viewBox="0 0 16 16" fill="none">
  <path d="M3.48 11.75L2.9475 12.2825C2.80781 12.423 2.72941 12.6131 2.72941 12.8113C2.72941 13.0094 2.80781 13.1995 2.9475 13.34C3.08802 13.4797 3.27811 13.5581 3.47625 13.5581C3.67439 13.5581 3.86448 13.4797 4.005 13.34L4.5375 12.8075C4.66037 12.664 4.72457 12.4795 4.71728 12.2907C4.70999 12.102 4.63174 11.9229 4.49817 11.7893C4.3646 11.6558 4.18555 11.5775 3.99679 11.5702C3.80803 11.5629 3.62348 11.6271 3.48 11.75ZM3 8C3 7.80109 2.92098 7.61032 2.78033 7.46967C2.63968 7.32902 2.44891 7.25 2.25 7.25H1.5C1.30109 7.25 1.11032 7.32902 0.96967 7.46967C0.829018 7.61032 0.75 7.80109 0.75 8C0.75 8.19891 0.829018 8.38968 0.96967 8.53033C1.11032 8.67098 1.30109 8.75 1.5 8.75H2.25C2.44891 8.75 2.63968 8.67098 2.78033 8.53033C2.92098 8.38968 3 8.19891 3 8ZM8.25 2.75C8.44891 2.75 8.63968 2.67098 8.78033 2.53033C8.92098 2.38968 9 2.19891 9 2V1.25C9 1.05109 8.92098 0.860322 8.78033 0.71967C8.63968 0.579018 8.44891 0.5 8.25 0.5C8.05109 0.5 7.86032 0.579018 7.71967 0.71967C7.57902 0.860322 7.5 1.05109 7.5 1.25V2C7.5 2.19891 7.57902 2.38968 7.71967 2.53033C7.86032 2.67098 8.05109 2.75 8.25 2.75ZM3.48 4.2875C3.6197 4.42606 3.80825 4.50417 4.005 4.505C4.10371 4.50557 4.20155 4.48665 4.29293 4.44933C4.38431 4.41201 4.46742 4.35701 4.5375 4.2875C4.67719 4.14698 4.75559 3.95689 4.75559 3.75875C4.75559 3.56061 4.67719 3.37052 4.5375 3.23L4.005 2.6975C3.86152 2.57463 3.67697 2.51043 3.48821 2.51772C3.29945 2.52501 3.1204 2.60326 2.98683 2.73683C2.85326 2.8704 2.77501 3.04945 2.76772 3.23821C2.76043 3.42697 2.82463 3.61152 2.9475 3.755L3.48 4.2875ZM12.48 4.505C12.6768 4.50417 12.8653 4.42606 13.005 4.2875L13.5375 3.755C13.616 3.68776 13.6798 3.60503 13.7248 3.51198C13.7698 3.41893 13.7951 3.31758 13.7991 3.21429C13.8031 3.111 13.7857 3.008 13.748 2.91176C13.7103 2.81551 13.6531 2.7281 13.58 2.65501C13.5069 2.58192 13.4195 2.52473 13.3232 2.48702C13.227 2.44932 13.124 2.43191 13.0207 2.4359C12.9174 2.43989 12.8161 2.46519 12.723 2.51021C12.63 2.55522 12.5472 2.61899 12.48 2.6975L12 3.23C11.8603 3.37052 11.7819 3.56061 11.7819 3.75875C11.7819 3.95689 11.8603 4.14698 12 4.2875C12.1322 4.41902 12.3087 4.49656 12.495 4.505H12.48ZM15 7.25H14.25C14.0511 7.25 13.8603 7.32902 13.7197 7.46967C13.579 7.61032 13.5 7.80109 13.5 8C13.5 8.19891 13.579 8.38968 13.7197 8.53033C13.8603 8.67098 14.0511 8.75 14.25 8.75H15C15.1989 8.75 15.3897 8.67098 15.5303 8.53033C15.671 8.38968 15.75 8.19891 15.75 8C15.75 7.80109 15.671 7.61032 15.5303 7.46967C15.3897 7.32902 15.1989 7.25 15 7.25ZM8.25 13.25C8.05109 13.25 7.86032 13.329 7.71967 13.4697C7.57902 13.6103 7.5 13.8011 7.5 14V14.75C7.5 14.9489 7.57902 15.1397 7.71967 15.2803C7.86032 15.421 8.05109 15.5 8.25 15.5C8.44891 15.5 8.63968 15.421 8.78033 15.2803C8.92098 15.1397 9 14.9489 9 14.75V14C9 13.8011 8.92098 13.6103 8.78033 13.4697C8.63968 13.329 8.44891 13.25 8.25 13.25ZM13.02 11.75C12.8775 11.6707 12.7131 11.6401 12.5516 11.6627C12.3901 11.6852 12.2404 11.7598 12.1251 11.8751C12.0098 11.9904 11.9352 12.1401 11.9127 12.3016C11.8901 12.4631 11.9207 12.6275 12 12.77L12.5325 13.3025C12.673 13.4422 12.8631 13.5206 13.0613 13.5206C13.2594 13.5206 13.4495 13.4422 13.59 13.3025C13.7297 13.162 13.8081 12.9719 13.8081 12.7738C13.8081 12.5756 13.7297 12.3855 13.59 12.245L13.02 11.75ZM8.25 3.875C7.43415 3.875 6.63663 4.11693 5.95827 4.57019C5.27992 5.02345 4.75121 5.66769 4.439 6.42143C4.12679 7.17518 4.0451 8.00458 4.20426 8.80475C4.36342 9.60492 4.75629 10.3399 5.33318 10.9168C5.91008 11.4937 6.64508 11.8866 7.44525 12.0457C8.24542 12.2049 9.07482 12.1232 9.82857 11.811C10.5823 11.4988 11.2266 10.9701 11.6798 10.2917C12.1331 9.61337 12.375 8.81585 12.375 8C12.373 6.90659 11.9378 5.85853 11.1646 5.08537C10.3915 4.31222 9.34341 3.87698 8.25 3.875ZM8.25 10.625C7.73082 10.625 7.22331 10.471 6.79163 10.1826C6.35995 9.89417 6.0235 9.4842 5.82482 9.00454C5.62614 8.52489 5.57415 7.99709 5.67544 7.48789C5.77672 6.97869 6.02673 6.51096 6.39384 6.14384C6.76096 5.77673 7.22869 5.52672 7.73789 5.42544C8.24709 5.32415 8.77489 5.37614 9.25454 5.57482C9.7342 5.7735 10.1442 6.10995 10.4326 6.54163C10.721 6.97331 10.875 7.48082 10.875 8C10.875 8.69619 10.5984 9.36387 10.1062 9.85616C9.61387 10.3484 8.94619 10.625 8.25 10.625Z" fill="#ABB7C0"/>
</svg>