<svg width="11" height="8" viewBox="0 0 11 8" fill="none" xmlns="http://www.w3.org/2000/svg">
<path d="M8.59102 8H1.57572C1.29877 8.00043 1.02736 7.9164 0.792914 7.75763C0.55847 7.59886 0.370576 7.37185 0.250981 7.10287C0.110981 6.78372 0.0570592 6.42864 0.0953591 6.0781C0.133659 5.72756 0.262641 5.39565 0.467606 5.12021L3.97526 0.544835C4.11291 0.373815 4.2831 0.236656 4.47429 0.142653C4.66547 0.04865 4.8732 0 5.08337 0C5.29355 0 5.50127 0.04865 5.69246 0.142653C5.88365 0.236656 6.05384 0.373815 6.19149 0.544835L9.69914 5.12021C9.90411 5.39565 10.0331 5.72756 10.0714 6.0781C10.1097 6.42864 10.0558 6.78372 9.91577 7.10287C9.79617 7.37185 9.60828 7.59886 9.37383 7.75763C9.13939 7.9164 8.86798 8.00043 8.59102 8Z" fill="#22F57A"/>
</svg>
