<svg width="16" height="16" viewBox="0 0 16 16" fill="none" xmlns="http://www.w3.org/2000/svg">
<path d="M15.8948 14.5919C14.8792 12.7442 13.2933 11.3045 11.3924 10.5045C12.3377 9.76962 13.0359 8.74504 13.3882 7.57591C13.7406 6.40678 13.7291 5.15238 13.3554 3.99039C12.9818 2.8284 12.2649 1.81774 11.3063 1.10156C10.3477 0.385384 9.19605 0 8.01444 0C6.83282 0 5.68116 0.385384 4.72258 1.10156C3.76401 1.81774 3.04711 2.8284 2.67345 3.99039C2.29979 5.15238 2.28831 6.40678 2.64063 7.57591C2.99295 8.74504 3.69121 9.76962 4.6365 10.5045C2.73562 11.3045 1.14971 12.7442 0.134073 14.5919C0.0711401 14.6968 0.0291959 14.8138 0.0107336 14.9358C-0.00772877 15.0578 -0.00233248 15.1825 0.0266018 15.3023C0.055536 15.4221 0.107417 15.5347 0.179162 15.6333C0.250906 15.7319 0.341049 15.8146 0.444231 15.8764C0.547413 15.9382 0.661527 15.9779 0.779791 15.993C0.898054 16.0082 1.01805 15.9986 1.13265 15.9647C1.24725 15.9308 1.35411 15.8734 1.44688 15.7959C1.53965 15.7184 1.61643 15.6223 1.67266 15.5134C3.01495 13.1084 5.38543 11.674 8.01444 11.674C10.6434 11.674 13.0139 13.1092 14.3562 15.5134C14.4781 15.7165 14.6714 15.8625 14.8952 15.9206C15.1191 15.9787 15.356 15.9443 15.5558 15.8246C15.7556 15.7049 15.9027 15.5094 15.9659 15.2794C16.0292 15.0493 16.0037 14.8028 15.8948 14.5919ZM4.16241 5.83815C4.16241 5.04842 4.38832 4.27643 4.81159 3.61979C5.23486 2.96315 5.83646 2.45136 6.54033 2.14915C7.24419 1.84693 8.01871 1.76786 8.76593 1.92193C9.51315 2.076 10.1995 2.45629 10.7382 3.01471C11.2769 3.57313 11.6438 4.28461 11.7925 5.05917C11.9411 5.83372 11.8648 6.63657 11.5732 7.36619C11.2817 8.0958 10.788 8.71942 10.1545 9.15817C9.52105 9.59692 8.7763 9.8311 8.01444 9.8311C6.99318 9.82988 6.01408 9.4088 5.29194 8.66025C4.5698 7.91169 4.16358 6.89677 4.16241 5.83815Z" fill="#ABB7C0"/>
</svg>
